<svg xmlns="http://www.w3.org/2000/svg" version="1.1" xmlns:xlink="http://www.w3.org/1999/xlink" xmlns:svgjs="http://svgjs.dev/svgjs" width="2000" height="2250" viewBox="0 0 2000 2250"><g transform="matrix(1,0,0,1,0.000015624999718966137,0)"><svg viewBox="0 0 320 360" data-background-color="#06413d" preserveAspectRatio="xMidYMid meet" height="2250" width="2000" xmlns="http://www.w3.org/2000/svg" xmlns:xlink="http://www.w3.org/1999/xlink"><g id="tight-bounds" transform="matrix(1,0,0,1,0.0000025000000505315256,0)"><svg viewBox="0 0 320 360" height="360" width="320"><g><svg></svg></g><g><svg viewBox="0 0 320 360" height="360" width="320"><g><path transform="translate(-19.44751,3.1739) scale(3.53591,3.53591)" d="M67.6 10.7c0.2 0 1.8 0.8 2.7 1.1-0.3 0.1-1-0.2-1.8-0.5 0.2 0 0.6 0.1 1 0.3-0.2-0.2-1.7-0.7-1.9-0.9M52.7 7.6c0.3-0.1 3.8 0.4 5.4 0.5 0.1-0.1-0.2-0.1-0.6-0.2 0.5-0.1 1.5 0.2 2.2 0.3-2.1 0.1-4.4-0.5-6.4-0.3-0.7 0-0.2-0.2-0.6-0.3M49.8 7.6c1.8 0 3.2 0 0.6 0.2-0.3-0.1-0.7-0.1-0.6-0.2M78.1 15.9c0.2 0 1 0.9 1.4 1.2-0.1 0.1-0.9-0.7-1.3-1 0.1 0.1 0 0-0.1-0.2M76.1 14.6c-0.8-0.7-1.1-0.7-1.2-1.1 0.7 0.4 1.2 0.8 1.2 1.1M63.2 8.3c0.1-0.1 0.3 0.1 0.8 0.2-0.6-0.1-0.5 0-0.3 0.2-0.7-0.1-0.9-0.2-0.7-0.4 0.4 0.2 0.5 0.1 0.2 0M34.8 9.5c0-0.1 0.4-0.3 0.7-0.4-0.3 0.2-0.2 0.3 0.3 0.1 0 0.1-0.6 0.3-1 0.5 0.2-0.1 0.4-0.4 0-0.2M65.2 7.3c-0.3 0.1-1.4-0.5-2.5-0.7-0.6-0.2 2.4 0.5 2.5 0.7M6.2 56.7c0.6 2.5 0.2 2.4 0 0M6.3 41.7c0.1-0.4 0.2-1.5 0.3-1.4-0.3 2.4-0.8 3.5-0.9 5.3 0.3-1.6-0.1 0.9-0.2 1.5 0.1 0.8 0.1-0.5 0.3-0.3 0.2 0.3-0.4 4.5-0.2 2.2-0.2 2.1 0 4.4 0.4 5-0.5 3.2 2 10.4 2.5 11.9 0.1 0.1 0-0.5 0.2-0.1 0.2 1.3 1.1 2.2 1.4 3.6 0.3 0.4 1.5 2.6 1.7 3.1 0.4 0.8 0.6 0.7 1 1.5 1.2 2.3 3.1 4.5 4.9 6.6 5.8 6.8 14.7 12.4 24.6 14.4 9.9 2.1 20.3 0.6 28.4-3.3 0.5-0.3 0.4-0.4 1-0.6 2.8-0.9 6.2-3.8 8.1-4.9 0.9-1 3.3-2.7 3.6-3.7 1.7-1.4 3.4-3.7 4.3-5.2 0.5-0.8 0.9-0.8 1.1-1.3-0.1 0 1.6-2.1 2.1-3.3-0.2 0-0.5 0.6-0.5 0 3.6-6.9 5.6-16.2 4.5-22.6 0.2 7.9-1.8 16.7-5.6 22.3-1.7 3.6-5.2 7.5-8.4 10.3-0.5 0.5-1 1.1-1.6 1.5-1.9 1.6-4 2.9-6.2 4.1-5.2 2.9-11 5.4-17.8 5.5 11.7-1 22.2-6.9 28-14.1-4.4 4.3-6.3 6-11.2 8.5-0.4 0.7-3.7 2.1-5.9 2.7 1.3-0.6 4-1.6 4.9-2.4-7.3 3.5-15.4 5.5-23 4.4 2.9 0 7 0.1 10.9-0.6 0.6-0.2 0.9-0.4 1.6-0.5 7.6-1.7 14.9-5.4 20.1-10.6-3 2.7-7.5 5.9-10.4 6.9 2.7-1.5 7.6-4.4 9.2-6.6-3.2 3.2-9.2 6.4-13 7.8-0.6 0.1 0.4-0.4-0.6 0-1.2 0.3-0.7 0.3-1 0.5-4.6 1.3-9.9 2.4-14.3 2-0.8-0.1-1.1-0.3-1.8-0.3-0.8-0.1-1.5-0.1-2.4-0.1-3.5-0.4-7.3-1.8-10.1-3-1.5-0.7-3-1.2-4.5-2.1-1.2-0.7-2.2-1.5-3.2-2.3-3.8-2.8-7-5.6-10-9.6-5.4-7.5-8.2-16.9-7.8-26.2 0.4-9.3 4.1-18.4 10-25.1-0.3 0.3 0.4-0.7 1-1.3 0 0.2-0.1 0.5 0.6-0.2 0.6-0.7-0.2-0.2 0.1-0.6 6.2-6.8 17-12.3 28.1-12.5 0.4-0.3 1.1-0.7 1.9-0.5 0 0.1-0.5 0.1-0.5 0.1 1.1-0.1 2.1-0.1 2.6 0.1 0.1-0.1-0.4-0.2 0-0.2 0.7 0.2 0.9 0 1.3 0.2-0.3 0-0.6 0-0.8 0.1 2.5 0 4.1 0.6 6.6 0.8-1.3-0.3-1.6-0.3-2.6-0.6 1.1 0.2 1.6 0.4 2.1 0.3-0.2 0-0.1-0.3 0.1-0.2 2 0.5 2.2 0.7 4.3 1.4 0.2-0.2-0.9-0.3-1.2-0.6 2 0.7 3.8 1.2 5 2-0.4-0.3-1.6-0.7-2.5-1.1-0.1 0.1 0.3 0.2 0.4 0.4-1-0.5-2.4-1-3.8-1.2 1.2 0.3 2 0.7 2.5 0.9-1.1-0.2-2.5-0.9-4.1-1.2 2.6 0.8 7.5 2.6 10.5 4.2-1.1-0.7-2.4-1.2-3.1-1.6 0.6 0.1 1.3 0.5 1.3 0.3 0.7 0.3 1.6 1 2.1 1.1-0.9-0.6-2.7-1.5-3.3-1.8 7.5 3.4 14.2 9.1 18.5 16.4 0.4 0.7 1 2.3 1.5 2.5-0.1-0.5-0.5-0.8-0.9-1.6 0.2 0 0.2-0.3 0-0.6-0.4-0.5 0 0.4-0.4-0.1-1.8-3.3-4-6.2-7.4-9.4 1.9 1.8 0.5 0.5 0.1-0.1 2.6 2.3 5.6 6.2 6.9 8.2-0.2-0.3-0.3-0.5-0.2-0.5 2.4 4.1 3.9 7.8 5.4 13.1 0.1 0.1 0-0.4 0.2-0.1 1 4.2 1.3 7.7 1.2 10.9 0.8-5.4-1-13.8-4.2-20.4-0.4-0.8-0.4-0.2-0.8-1.1 0-0.3-0.3-0.9-0.5-1.3-4-6.6-8.9-11.3-14.7-15 0.4 0.2 1.2 0.8 1.2 0.7-10.8-7.1-23.3-8.1-33.6-5.9-0.7 0.3-1 0.6-1.8 1 1.5-0.5 2.4-0.6 3.8-0.9 0.3-0.3-1.3 0.1-0.6-0.2 0.1 0.1 1.4-0.2 1.7-0.1 0 0.1-0.4 0.2-0.5 0.3 3.3-0.7 6.7-0.8 9.6-0.6-1.7 0.1-4.8-0.2-5.8 0.3 1-0.1 2.4-0.2 3.3-0.1-1.2 0-3.4 0.1-4.4 0.2-0.1-0.1 1.6-0.3 0.5-0.3-0.5 0.1-1.3 0.1-1.6 0.4-8.6 0.8-17 5.3-22.9 10.6-1.2 1-2.6 2.1-3.5 3.2-2.2 2.5-3.6 5-5.2 7.2 1-2.1 3.2-5.3 5.8-8 2.6-2.7 5.4-5 6.9-6.2 0 0.4 2.4-1.5 3.3-2.1-0.6 0.5 0.4-0.2 0.6-0.1 3.2-1.9 5.8-2.6 8.7-3.7-0.7 0.2-1.3 0.4-1.4 0.3 0.7-0.2 1.1-0.4 1-0.5-2.8 0.8-7.2 2.7-10.7 4.8 6.3-4.3 14.3-6.9 22.2-7 7.9-0.2 15.6 1.8 21.7 5 4.1 1.8 8 5.1 11.1 8.3 0.9 0.8 0.2-0.2 1.5 1.2-0.4-0.2-0.7-0.4-0.2 0.2 0.8 0.9-0.2-0.7 1.1 0.9-0.1 0-0.5-0.5-0.5-0.3 3.5 3.1 6.2 8.7 7.8 12.4-0.4-1.5-1.4-3.6-2.2-5.1 2.4 4.4 3.2 7 4.2 10.9 0.4 0.3-0.2-1.4 0.2-0.6 0.1 0.6 0.2 2.5 0.6 2.8-0.3-1.9-0.8-4.2-1.2-4.6 0.3 0.2-0.5-2.3-1-2.9-0.2-1.6-1.6-4.4-2.8-6.5-4.3-8.4-12-15.3-20.6-19.1 0-0.2-0.5-0.4-0.7-0.6-8.5-3.6-18.7-4.6-28.5-2.3-9.9 2.4-19.2 8.1-25.8 16.3 0.3-1 2.8-2.9 2.9-3.7-2.9 3.1-6 7.2-8.1 11.6-2.2 4.4-3.4 8.9-3.9 12.2" fill="#efd9cc" fill-rule="nonzero" stroke="none" stroke-width="1" stroke-linecap="butt" stroke-linejoin="miter" stroke-miterlimit="10" stroke-dasharray="" stroke-dashoffset="0" font-family="none" font-weight="none" font-size="none" text-anchor="none" style="mix-blend-mode: normal" data-fill-palette-color="tertiary"></path></g><g transform="matrix(1,0,0,1,91.37248200537425,90)"><svg viewBox="0 0 137.2550359892515 180" height="180" width="137.2550359892515"><g><svg viewBox="0 0 137.2550359892515 180" height="180" width="137.2550359892515"><g><svg viewBox="0 0 224 293.75971314566175" height="180" width="137.2550359892515"><g transform="matrix(1,0,0,1,0,158.21379004165044)"><svg viewBox="0 0 224 135.54592310401128" height="135.54592310401128" width="224"><g id="textblocktransform"><svg viewBox="0 0 224 135.54592310401128" height="135.54592310401128" width="224" id="textblock"><g><svg viewBox="0 0 224 135.54592310401128" height="135.54592310401128" width="224"><g transform="matrix(1,0,0,1,0,0)"><svg width="224" viewBox="1.710588348457 -35.18 58.659411651542996 35.5" height="135.54592310401128" data-palette-color="#efd9cc"><path d="M10.62 0.32L10.62 0.32Q6.03 0.32 3.98-1.14 1.93-2.59 1.81-5.93L1.81-5.93Q1.68-7.79 1.72-9.3 1.76-10.82 1.88-12.7L1.88-12.7 5.18-12.7Q5.03-10.82 5.04-8.96 5.05-7.1 5.18-5.37L5.18-5.37Q5.3-3.96 6.52-3.28 7.74-2.61 10.55-2.61L10.55-2.61Q13.31-2.61 14.47-3.28 15.63-3.96 15.77-5.37L15.77-5.37Q15.89-7.1 15.88-8.39 15.87-9.67 15.77-11.57L15.77-11.57Q15.67-13.09 14.98-14.11 14.28-15.14 11.89-15.45L11.89-15.45 8.4-16.09Q5.64-16.55 4.26-17.44 2.88-18.33 2.38-19.74 1.88-21.14 1.78-23.17L1.78-23.17Q1.71-24.51 1.73-26.04 1.76-27.56 1.83-29L1.83-29Q1.88-32.32 3.87-33.75 5.86-35.18 10.55-35.18L10.55-35.18Q14.87-35.18 16.83-33.74 18.8-32.3 18.92-28.98L18.92-28.98Q18.99-27.83 18.97-26.14 18.95-24.44 18.87-22.63L18.87-22.63 15.55-22.63Q15.72-24.37 15.72-26.1 15.72-27.83 15.6-29.54L15.6-29.54Q15.5-30.93 14.32-31.59 13.13-32.25 10.47-32.25L10.47-32.25Q7.71-32.25 6.53-31.59 5.35-30.93 5.22-29.54L5.22-29.54Q5.1-27.98 5.11-26.37 5.13-24.76 5.22-23.17L5.22-23.17Q5.32-21.39 5.99-20.45 6.67-19.51 9.18-19.21L9.18-19.21 12.6-18.68Q15.36-18.26 16.75-17.33 18.14-16.41 18.64-14.98 19.14-13.55 19.21-11.57L19.21-11.57Q19.34-9.77 19.31-8.64 19.29-7.52 19.17-5.93L19.17-5.93Q18.99-2.59 17-1.14 15.01 0.32 10.62 0.32ZM26.58-10.74L26.58 0 23.12 0 23.12-34.86 26.68-34.86 26.68-26.59 26.24-17.87 27.22-17.87 31.54-27.25 35.01-34.86 38.77-34.86 31.13-19.48 39.65 0 36.06 0 28.98-15.38 26.58-10.74ZM45.77-13.06L45.77 0 42.38 0 42.38-34.86 50.46-34.86Q54.8-34.86 56.79-33.45 58.78-32.03 59-28.76L59-28.76Q59.25-26.03 59.22-23.75 59.2-21.48 59-19.17L59-19.17Q58.88-16.94 57.76-15.61 56.64-14.28 54.24-13.65L54.24-13.65 60.37 0 56.66 0 50.95-13.06 45.77-13.06ZM50.46-31.74L45.77-31.74 45.77-16.19 50.36-16.19Q53.12-16.19 54.33-16.87 55.54-17.55 55.63-18.99L55.63-18.99Q56-23.97 55.63-28.93L55.63-28.93Q55.54-30.37 54.34-31.05 53.14-31.74 50.46-31.74L50.46-31.74Z" opacity="1" transform="matrix(1,0,0,1,0,0)" fill="#efd9cc" class="wordmark-text-0" data-fill-palette-color="primary" id="text-0"></path></svg></g></svg></g></svg></g></svg></g><g transform="matrix(1,0,0,1,42.784000000000006,0)"><svg viewBox="0 0 138.432 138.4343867586207" height="138.4343867586207" width="138.432"><g><svg xmlns="http://www.w3.org/2000/svg" xmlns:xlink="http://www.w3.org/1999/xlink" version="1.1" x="0" y="0" viewBox="3 3.0060000000000002 58 58.001" style="enable-background:new 0 0 64 64;" xml:space="preserve" height="138.4343867586207" width="138.432" class="icon-icon-0" data-fill-palette-color="accent" id="icon-0"><g fill="#efd9cc" data-fill-palette-color="accent"><path d="M11.042 26.836C11.021 26.562 11 26.287 11 26.007v-4.816c-1.161 0.414-2 1.514-2 2.816C9 25.325 9.859 26.434 11.042 26.836z" fill="#efd9cc" data-fill-palette-color="accent"></path><path d="M26 36.243c-1.242 0.487-2.588 0.764-4 0.764s-2.758-0.277-4-0.764v1.35l4 4 4-4V36.243z" fill="#efd9cc" data-fill-palette-color="accent"></path><path d="M11.397 40.929l-4.978 1.659C4.374 43.27 3 45.176 3 47.332v3.676h6v-3h2v7h10v-9.586l-4.182 4.182L11.397 40.929z" fill="#efd9cc" data-fill-palette-color="accent"></path><path d="M31 19.007H13v7c0 4.963 4.037 9 9 9s9-4.037 9-9V19.007zM17 23.007c-0.552 0-1-0.448-1-1 0-0.552 0.448-1 1-1s1 0.448 1 1C18 22.56 17.552 23.007 17 23.007zM22 32.007c-2.206 0-4-1.794-4-4h2c0 1.103 0.897 2 2 2s2-0.897 2-2h2C26 30.213 24.206 32.007 22 32.007zM27 23.007c-0.552 0-1-0.448-1-1 0-0.552 0.448-1 1-1s1 0.448 1 1C28 22.56 27.552 23.007 27 23.007z" fill="#efd9cc" data-fill-palette-color="accent"></path><polygon points="23.414,43.007 26.818,46.412 30.652,40.278 27.27,39.151  " fill="#efd9cc" data-fill-palette-color="accent"></polygon><polygon points="17.182,46.412 20.586,43.007 16.73,39.151 13.349,40.278  " fill="#efd9cc" data-fill-palette-color="accent"></polygon><rect x="3" y="53.007" width="6" height="2" fill="#efd9cc" data-fill-palette-color="accent"></rect><path d="M33 21.192v4.816c0 0.28-0.021 0.554-0.042 0.829C34.141 26.434 35 25.325 35 24.007 35 22.705 34.161 21.606 33 21.192z" fill="#efd9cc" data-fill-palette-color="accent"></path><path d="M60 39.007H36c-0.552 0-1 0.448-1 1v6 5h26v-11C61 39.456 60.552 39.007 60 39.007zM44.6 47.207l-1.199 1.6-5.067-3.8 5.067-3.8 1.199 1.6-2.933 2.2L44.6 47.207zM47.19 49.508l-1.844-0.775 3.463-8.227 1.844 0.775L47.19 49.508zM52.6 48.807l-1.199-1.6 2.933-2.2-2.933-2.2 1.199-1.6 5.067 3.8L52.6 48.807z" fill="#efd9cc" data-fill-palette-color="accent"></path><path d="M35 54.007c0 0.552 0.448 1 1 1h24c0.552 0 1-0.448 1-1v-1H35V54.007z" fill="#efd9cc" data-fill-palette-color="accent"></path><path d="M11 19.007c0-1.103 0.897-2 2-2h18c1.103 0 2 0.897 2 2v0.101c0.743 0.152 1.416 0.482 2 0.924v-4.026c0-7.168-5.832-13-13-13s-13 5.832-13 13v4.026c0.584-0.442 1.257-0.773 2-0.924V19.007z" fill="#efd9cc" data-fill-palette-color="accent"></path><polygon points="52,57.007 44,57.007 44,59.007 42,59.007 42,61.007 54,61.007 54,59.007 52,59.007  " fill="#efd9cc" data-fill-palette-color="accent"></polygon><polygon points="27.182,49.603 23,45.421 23,55.007 33,55.007 33,48.007 33,42.007 33,41.061 32.603,40.929  " fill="#efd9cc" data-fill-palette-color="accent"></polygon></g></svg></g></svg></g><g></g></svg></g></svg></g></svg></g></svg></g><defs></defs></svg><rect width="320" height="360" fill="none" stroke="none" visibility="hidden"></rect></g></svg></g></svg>